# xmcd
#
# Track frame offsets:
#	150
#	18950
#	33564
#	49575
#	67288
#	84055
#	104619
#	115881
#	133668
#	150448
#	167898
#	185384
#	205072
#	223606
#	239815
#
# Disc length: 3405 seconds
#
# Revision: 1
# Processed by: cddbd v1.5.1PL0 Copyright (c) Steve Scherf et al.
# Submitted via: audiograbber 1.83.01
#
DISCID=d10d4b0f
DTITLE=Sing It Now - SIN4032
DYEAR=2004
DGENRE=KARAOKE
TTITLE0=Toby Keith - American Soldier
TTITLE1=Martina McBride - In My Daughter's Eyes
TTITLE2=Buddy Jewell - Sweet Southern Comfort
TTITLE3=Sara Evans - Perfect
TTITLE4=Jo Dee Messina - I Wish
TTITLE5=Alan Jackson - Remember When
TTITLE6=Tracy Byrd - Drinkin' Bone
TTITLE7=Brad Paisley - Little Moments
TTITLE8=Kellie Coffey - Texas Plates
TTITLE9=Carolyn Dawn Johnson - Simple Life
TTITLE10=Tracy Lawrence - Paint Me A Birmingham
TTITLE11=Tim McGraw - Watch The Wind Blow By
TTITLE12=Gary Allan - Songs About Rain
TTITLE13=Dierks Bentley - My Last Name
TTITLE14=Clay Walker - I Can't Sleep
EXTD=
EXTT0=
EXTT1=
EXTT2=
EXTT3=
EXTT4=
EXTT5=
EXTT6=
EXTT7=
EXTT8=
EXTT9=
EXTT10=
EXTT11=
EXTT12=
EXTT13=
EXTT14=
PLAYORDER=
